<svg width="18" height="29" viewBox="0 0 18 29" fill="none" xmlns="http://www.w3.org/2000/svg">
<path d="M13.292 24.5L14.8035 27.9881C15.0829 28.631 15.8521 28.9351 16.5231 28.668C17.1954 28.4036 17.5142 27.6674 17.2356 27.0241L15.7244 23.5371L13.292 24.5Z" fill="#333333"/>
<path d="M14.3008 26.8252L16.7328 25.8623L14.3008 26.8252Z" fill="#333333"/>
<path d="M11.9743 10.0672C11.9743 11.9208 10.4032 13.4231 8.46615 13.4231C6.52701 13.4231 4.95557 11.9208 4.95557 10.0672C4.95557 8.21393 6.52701 6.7124 8.46615 6.7124C10.4029 6.7124 11.9743 8.21393 11.9743 10.0672Z" fill="#333333"/>
<path d="M10.2196 10.0671C10.2196 10.9944 9.43465 11.7458 8.4661 11.7458C7.49638 11.7458 6.70947 10.9944 6.70947 10.0671C6.70947 9.14049 7.49638 8.38916 8.4661 8.38916C9.43465 8.38874 10.2196 9.14049 10.2196 10.0671Z" fill="#333333"/>
<path d="M6.00443 12.4592L1.20346 23.5377L0 28.5093L0.810559 28.8303L3.63624 24.5006L4.30851 22.9511C3.784 21.7397 4.38492 20.3507 5.65179 19.8499L8.43566 13.4221C7.4888 13.4146 6.63217 13.0489 6.00443 12.4592Z" fill="#333333"/>
<path d="M10.9256 12.4583C10.2975 13.0487 9.44003 13.4144 8.49316 13.4215L12.6228 22.949L15.054 21.9866L10.9256 12.4583Z" fill="#333333"/>
<path d="M9.78108 5.03422V1.25865C9.78064 0.562845 9.18957 0 8.46498 0C7.73797 0 7.14888 0.562084 7.14844 1.25865L7.14888 5.03422H9.78108Z" fill="#333333"/>
<path d="M8.46595 6.71212C8.69021 6.71212 8.91006 6.73366 9.12286 6.77221V5.03418H7.80713V6.77221C8.02074 6.73328 8.23941 6.71212 8.46595 6.71212Z" fill="#333333"/>
</svg>
